<svg xmlns="http://www.w3.org/2000/svg" viewBox="0 0 225.5 225.5"><defs><style>.cls-1{fill:#015eff;}.cls-2{fill:#b0d0ff;}.cls-3{fill:#fff;}</style></defs><title>Asset 35</title><g id="Layer_2" data-name="Layer 2"><g id="Footer"><circle class="cls-1" cx="112.7" cy="112.7" r="112.7"/><path class="cls-2" d="M170.9,68.8a30.9,30.9,0,0,0-46.3,0l-9.3,10.5a3.5,3.5,0,0,1-5.1,0l-9.3-10.5a30.9,30.9,0,0,0-46.3,0h0a31.1,31.1,0,0,0-7.9,20.6v25.8h.1a31.2,31.2,0,0,0,7.8,18.4l16.7,18.8,36.4,41a6.8,6.8,0,0,0,10.1,0l36.4-41,16.7-18.8a31.2,31.2,0,0,0,7.8-18.4h.1V89.4A31.1,31.1,0,0,0,170.9,68.8Z"/><path class="cls-3" d="M124.6,68.8l-9.3,10.5a3.5,3.5,0,0,1-5.1,0l-9.3-10.5a30.9,30.9,0,0,0-46.3,0h0a30.8,30.8,0,0,0,0,41.1l16.7,18.9h0l36.4,40.9a6.8,6.8,0,0,0,10.1,0l36.4-40.9,16.7-18.9a30.8,30.8,0,0,0,0-41.1h0A30.9,30.9,0,0,0,124.6,68.8Z"/></g></g></svg>