<svg xmlns="http://www.w3.org/2000/svg" viewBox="0 0 225.5 225.5"><defs><style>.cls-1{fill:#015eff;}.cls-2{fill:#b0d0ff;}.cls-3{fill:#fff;}.cls-4{fill:none;stroke:#b0d0ff;stroke-linecap:round;stroke-linejoin:round;}</style></defs><title>Asset 36</title><g id="Layer_2" data-name="Layer 2"><g id="Footer"><circle class="cls-1" cx="112.7" cy="112.7" r="112.7"/><path class="cls-2" d="M46.7,63.4h132a0,0,0,0,1,0,0V175.1a3,3,0,0,1-3,3H49.7a3,3,0,0,1-3-3V63.4A0,0,0,0,1,46.7,63.4Z"/><path class="cls-3" d="M102.7,47.4H56.8A10.1,10.1,0,0,0,46.7,57.5v96a10.1,10.1,0,0,0,10.1,10.1h45.9a10.1,10.1,0,0,1,10,10.1V57.5A10.1,10.1,0,0,0,102.7,47.4Z"/><path class="cls-3" d="M168.7,47.4H122.8a10.1,10.1,0,0,0-10.1,10.1V173.7a10.1,10.1,0,0,1,10.1-10.1h45.9a10.1,10.1,0,0,0,10.1-10.1v-96A10.1,10.1,0,0,0,168.7,47.4Z"/><line class="cls-4" x1="124.6" y1="65.7" x2="160.2" y2="65.7"/><line class="cls-4" x1="124.6" y1="81.1" x2="147.5" y2="81.1"/><line class="cls-4" x1="124.6" y1="96.6" x2="139.6" y2="96.6"/><line class="cls-4" x1="124.6" y1="112" x2="160.2" y2="112"/><line class="cls-4" x1="124.6" y1="127.5" x2="147.5" y2="127.5"/><line class="cls-4" x1="124.6" y1="143" x2="160.2" y2="143"/><rect class="cls-2" x="63.1" y="65.7" width="31.3" height="42.44" rx="1" ry="1"/></g></g></svg>