<svg xmlns="http://www.w3.org/2000/svg" xmlns:xlink="http://www.w3.org/1999/xlink" viewBox="0 0 225.5 225.5"><defs><style>.cls-1{fill:none;}.cls-2{clip-path:url(#clip-path);}.cls-3{fill:#015eff;}.cls-4{fill:#fff;}.cls-5{fill:#b0d0ff;}</style><clipPath id="clip-path"><circle class="cls-1" cx="112.7" cy="112.7" r="112.7"/></clipPath></defs><title>Asset 32</title><g id="Layer_2" data-name="Layer 2"><g id="Footer"><g class="cls-2"><circle class="cls-3" cx="112.7" cy="112.7" r="112.7"/><path class="cls-4" d="M196.8,120.2,117.2,48.3a6.8,6.8,0,0,0-8.9,0L28.7,120.2a6.6,6.6,0,0,0,4.4,11.5H52.4v89.9H173.1V131.7h19.3A6.6,6.6,0,0,0,196.8,120.2Z"/><path class="cls-5" d="M92.7,158.7h40.2a5.7,5.7,0,0,1,5.7,5.7v61a0,0,0,0,1,0,0H86.9a0,0,0,0,1,0,0v-61A5.7,5.7,0,0,1,92.7,158.7Z"/></g></g></g></svg>