<svg xmlns="http://www.w3.org/2000/svg" viewBox="0 0 225.5 225.5"><defs><style>.cls-1{fill:#015eff;}.cls-2{fill:#fff;}.cls-3{fill:#b0d0ff;}.cls-4{fill:none;stroke:#fff;stroke-linecap:round;stroke-linejoin:round;}</style></defs><title>Asset 33</title><g id="Layer_2" data-name="Layer 2"><g id="Footer"><circle class="cls-1" cx="112.7" cy="112.7" r="112.7"/><path class="cls-2" d="M46,60.1H179.5a2,2,0,0,1,2,2V156a0,0,0,0,1,0,0H44a0,0,0,0,1,0,0V62.1A2,2,0,0,1,46,60.1Z"/><rect class="cls-3" x="51.8" y="72.1" width="121.9" height="88.63"/><path class="cls-2" d="M191.5,156H127a14.1,14.1,0,0,1-8.1,2.7H106.6a14.1,14.1,0,0,1-8.1-2.7H34a2.2,2.2,0,0,0-2.2,2.2,7.2,7.2,0,0,0,7.2,7.2H186.5a7.2,7.2,0,0,0,7.2-7.2A2.2,2.2,0,0,0,191.5,156Z"/><line class="cls-4" x1="120.5" y1="100.9" x2="100.7" y2="115.1"/><line class="cls-4" x1="168.1" y1="66.3" x2="128.7" y2="94.7"/><line class="cls-4" x1="151.3" y1="97" x2="89.4" y2="141.4"/><line class="cls-4" x1="177.6" y1="78" x2="161.7" y2="89.4"/><circle class="cls-3" cx="112.7" cy="66.2" r="1.8"/></g></g></svg>