<svg xmlns="http://www.w3.org/2000/svg" viewBox="0 0 225.5 225.5"><defs><style>.cls-1{fill:#015eff;}.cls-2{fill:none;stroke:#fff;stroke-linecap:round;stroke-linejoin:round;stroke-width:3px;}.cls-3{fill:#fff;}.cls-4{fill:#b0d0ff;}</style></defs><title>Asset 34</title><g id="Layer_2" data-name="Layer 2"><g id="Footer"><circle class="cls-1" cx="112.7" cy="112.7" r="112.7"/><path class="cls-2" d="M159.5,87.6l1.1-.7a17.7,17.7,0,0,1,25.3,7h0a18,18,0,0,1,1.2,12.5l-2.6,9.8a17.7,17.7,0,0,1-17.1,13H149.9"/><path class="cls-3" d="M52.9,74.6V90.2a92.9,92.9,0,0,0,10.2,42.3h0a36.9,36.9,0,0,0,32.7,19.9h33.8a36.8,36.8,0,0,0,32.6-19.9h0a91.8,91.8,0,0,0,10.3-42.3V74.6a5.4,5.4,0,0,0-5.5-5.4H58.4A5.4,5.4,0,0,0,52.9,74.6Z"/><rect class="cls-4" x="52.9" y="80.8" width="119.6" height="7"/><path class="cls-3" d="M158,176.5H68.2a2.8,2.8,0,0,1-1.5-.4L46.3,165.8a3.3,3.3,0,0,1,1.6-6.3H178.3a3.3,3.3,0,0,1,1.6,6.3l-20.4,10.3A2.8,2.8,0,0,1,158,176.5Z"/></g></g></svg>